<?xml version="1.0" encoding="UTF-8" standalone="no"?>
<!-- Created with Inkscape (http://www.inkscape.org/) -->

<svg
   width="210.48mm"
   height="210.48mm"
   viewBox="0 0 210.48 210.48"
   version="1.1"
   id="svg1"
   xml:space="preserve"
   inkscape:version="1.4.2 (ebf0e940, 2025-05-08)"
   sodipodi:docname="icon.svg"
   xmlns:inkscape="http://www.inkscape.org/namespaces/inkscape"
   xmlns:sodipodi="http://sodipodi.sourceforge.net/DTD/sodipodi-0.dtd"
   xmlns="http://www.w3.org/2000/svg"
   xmlns:svg="http://www.w3.org/2000/svg"><sodipodi:namedview
     id="namedview1"
     pagecolor="#ffffff"
     bordercolor="#000000"
     borderopacity="0.25"
     inkscape:showpageshadow="2"
     inkscape:pageopacity="0.0"
     inkscape:pagecheckerboard="0"
     inkscape:deskcolor="#d1d1d1"
     inkscape:document-units="mm"
     inkscape:zoom="1.3015385"
     inkscape:cx="352.65956"
     inkscape:cy="309.2494"
     inkscape:window-width="2048"
     inkscape:window-height="1286"
     inkscape:window-x="0"
     inkscape:window-y="44"
     inkscape:window-maximized="0"
     inkscape:current-layer="layer2" /><defs
     id="defs1" /><g
     inkscape:groupmode="layer"
     id="layer2"
     inkscape:label="Layer 2"
     style="display:inline"
     transform="translate(0.20085,-43.43033)"><polygon
       points="1,0.0703 1,0.0766 1,0.0829 1,0.0893 1,0.0956 1,0.102 1,0.1083 1,0.1147 1,0.121 1,0.1274 1,0.1338 1,0.1402 1,0.1466 1,0.1531 1,0.1595 1,0.166 1,0.1724 1,0.1789 1,0.1854 1,0.1919 1,0.1985 1,0.205 1,0.2116 1,0.2181 1,0.2247 1,0.2313 1,0.238 1,0.2446 1,0.2513 1,0.258 1,0.2647 1,0.2715 1,0.2782 1,0.285 1,0.2918 1,0.2987 1,0.3055 1,0.3124 1,0.3193 1,0.3263 1,0.3332 1,0.3402 1,0.3473 1,0.3543 1,0.3614 1,0.3685 1,0.3757 1,0.3829 1,0.3901 1,0.3974 1,0.4047 1,0.412 0.9999,0.4194 0.9999,0.4268 0.9999,0.4342 0.9998,0.4417 0.9998,0.4492 0.9997,0.4567 0.9996,0.4643 0.9995,0.4719 0.9993,0.4795 0.9991,0.4872 0.9989,0.4949 0.9987,0.5026 0.9983,0.5103 0.998,0.5181 0.9976,0.5259 0.9971,0.5336 0.9965,0.5414 0.9959,0.5492 0.9951,0.557 0.9943,0.5648 0.9934,0.5726 0.9924,0.5803 0.9913,0.5881 0.9901,0.5958 0.9887,0.6035 0.9873,0.6112 0.9857,0.6188 0.984,0.6264 0.9822,0.6339 0.9802,0.6414 0.9781,0.6489 0.9759,0.6563 0.9736,0.6636 0.9711,0.6709 0.9685,0.6782 0.9658,0.6854 0.9629,0.6925 0.96,0.6996 0.9569,0.7066 0.9537,0.7135 0.9504,0.7204 0.9469,0.7272 0.9434,0.734 0.9397,0.7406 0.9359,0.7473 0.9321,0.7538 0.9281,0.7603 0.924,0.7667 0.9199,0.7731 0.9156,0.7794 0.9112,0.7856 0.9068,0.7917 0.9022,0.7978 0.8976,0.8038 0.8929,0.8098 0.8881,0.8157 0.8832,0.8215 0.8782,0.8272 0.8732,0.8329 0.8681,0.8385 0.8629,0.844 0.8576,0.8495 0.8522,0.8549 0.8468,0.8602 0.8413,0.8654 0.8358,0.8706 0.8301,0.8757 0.8244,0.8807 0.8186,0.8856 0.8128,0.8904 0.8069,0.8952 0.8009,0.8999 0.7948,0.9045 0.7887,0.909 0.7825,0.9134 0.7763,0.9177 0.77,0.9219 0.7636,0.926 0.7571,0.9301 0.7506,0.934 0.744,0.9378 0.7374,0.9415 0.7307,0.9451 0.7239,0.9486 0.717,0.952 0.7101,0.9553 0.7032,0.9584 0.6961,0.9614 0.689,0.9643 0.6819,0.9671 0.6747,0.9698 0.6674,0.9723 0.6601,0.9747 0.6527,0.977 0.6452,0.9792 0.6378,0.9812 0.6302,0.9831 0.6227,0.9848 0.6151,0.9865 0.6074,0.988 0.5997,0.9894 0.592,0.9907 0.5843,0.9919 0.5765,0.9929 0.5688,0.9939 0.561,0.9947 0.5532,0.9955 0.5454,0.9962 0.5376,0.9968 0.5298,0.9973 0.5221,0.9978 0.5143,0.9982 0.5066,0.9985 0.4988,0.9988 0.4911,0.999 0.4835,0.9992 0.4758,0.9994 0.4682,0.9995 0.4606,0.9996 0.453,0.9997 0.4455,0.9998 0.438,0.9998 0.4306,0.9999 0.4231,0.9999 0.4158,0.9999 0.4084,1 0.4011,1 0.3938,1 0.3866,1 0.3794,1 0.3722,1 0.3651,1 0.3579,1 0.3509,1 0.3438,1 0.3368,1 0.3298,1 0.3229,1 0.3159,1 0.309,1 0.3022,1 0.2953,1 0.2885,1 0.2817,1 0.2749,1 0.2682,1 0.2614,1 0.2547,1 0.248,1 0.2414,1 0.2347,1 0.2281,1 0.2215,1 0.2149,1 0.2084,1 0.2018,1 0.1953,1 0.1887,1 0.1822,1 0.1758,1 0.1693,1 0.1628,1 0.1564,1 0.1499,1 0.1435,1 0.1371,1 0.1307,1 0.1243,1 0.1179,1 0.1116,1 0.1052,1 0.0988,1 0.0925,1 0.0862,1 0.0798,1 0.0735,1 0.0672,1 0.0609,1 0.0546,1 0.0483,1 0.042,1 0.0357,1 0.0294,1 0.0231,1 0.0168,1 0.0105,1 0.0042,1 -0.0021,1 -0.0084,1 -0.0146,1 -0.0209,1 -0.0272,1 -0.0335,1 -0.0398,1 -0.0461,1 -0.0524,1 -0.0587,1 -0.065,1 -0.0714,1 -0.0777,1 -0.084,1 -0.0903,1 -0.0967,1 -0.103,1 -0.1094,1 -0.1158,1 -0.1221,1 -0.1285,1 -0.1349,1 -0.1413,1 -0.1477,1 -0.1542,1 -0.1606,1 -0.1671,1 -0.1735,1 -0.18,1 -0.1865,1 -0.193,1 -0.1996,1 -0.2061,1 -0.2127,1 -0.2193,1 -0.2259,1 -0.2325,1 -0.2391,1 -0.2458,1 -0.2525,1 -0.2591,1 -0.2659,1 -0.2726,1 -0.2794,1 -0.2862,1 -0.293,1 -0.2998,1 -0.3067,1 -0.3136,1 -0.3205,1 -0.3274,1 -0.3344,1 -0.3414,1 -0.3485,1 -0.3555,1 -0.3626,1 -0.3698,1 -0.3769,1 -0.3841,1 -0.3913,1 -0.3986,1 -0.4059,1 -0.4133,0.9999 -0.4206,0.9999 -0.428,0.9999 -0.4355,0.9999 -0.4429,0.9998 -0.4505,0.9997 -0.458,0.9997 -0.4656,0.9996 -0.4732,0.9994 -0.4808,0.9993 -0.4885,0.9991 -0.4962,0.9989 -0.5039,0.9986 -0.5117,0.9983 -0.5194,0.9979 -0.5272,0.9975 -0.535,0.997 -0.5428,0.9964 -0.5506,0.9958 -0.5583,0.995 -0.5661,0.9942 -0.5739,0.9933 -0.5817,0.9922 -0.5894,0.9911 -0.5971,0.9898 -0.6048,0.9885 -0.6125,0.987 -0.6201,0.9854 -0.6277,0.9837 -0.6352,0.9818 -0.6427,0.9799 -0.6501,0.9777 -0.6575,0.9755 -0.6649,0.9732 -0.6722,0.9707 -0.6794,0.9681 -0.6866,0.9653 -0.6937,0.9624 -0.7008,0.9595 -0.7078,0.9564 -0.7147,0.9531 -0.7216,0.9498 -0.7284,0.9463 -0.7351,0.9428 -0.7418,0.9391 -0.7484,0.9353 -0.7549,0.9314 -0.7614,0.9274 -0.7678,0.9233 -0.7741,0.9191 -0.7804,0.9148 -0.7866,0.9105 -0.7928,0.906 -0.7988,0.9014 -0.8049,0.8968 -0.8108,0.8921 -0.8167,0.8872 -0.8225,0.8823 -0.8282,0.8774 -0.8338,0.8723 -0.8394,0.8672 -0.845,0.862 -0.8504,0.8567 -0.8558,0.8513 -0.8611,0.8459 -0.8663,0.8404 -0.8714,0.8348 -0.8765,0.8292 -0.8815,0.8234 -0.8864,0.8177 -0.8912,0.8118 -0.896,0.8059 -0.9007,0.7999 -0.9052,0.7938 -0.9097,0.7877 -0.9141,0.7815 -0.9184,0.7752 -0.9226,0.7689 -0.9267,0.7625 -0.9307,0.756 -0.9346,0.7495 -0.9384,0.7429 -0.9421,0.7362 -0.9457,0.7295 -0.9492,0.7227 -0.9526,0.7159 -0.9558,0.7089 -0.9589,0.702 -0.9619,0.6949 -0.9648,0.6878 -0.9676,0.6806 -0.9702,0.6734 -0.9727,0.6661 -0.9751,0.6588 -0.9774,0.6514 -0.9795,0.644 -0.9815,0.6365 -0.9834,0.6289 -0.9851,0.6214 -0.9867,0.6138 -0.9882,0.6061 -0.9896,0.5984 -0.9909,0.5907 -0.992,0.583 -0.9931,0.5752 -0.994,0.5675 -0.9949,0.5597 -0.9956,0.5519 -0.9963,0.5441 -0.9969,0.5363 -0.9974,0.5285 -0.9978,0.5207 -0.9982,0.513 -0.9986,0.5052 -0.9988,0.4975 -0.9991,0.4898 -0.9993,0.4821 -0.9994,0.4745 -0.9995,0.4669 -0.9996,0.4593 -0.9997,0.4517 -0.9998,0.4442 -0.9999,0.4367 -0.9999,0.4293 -0.9999,0.4219 -0.9999,0.4145 -1,0.4072 -1,0.3999 -1,0.3926 -1,0.3853 -1,0.3781 -1,0.371 -1,0.3638 -1,0.3567 -1,0.3497 -1,0.3426 -1,0.3356 -1,0.3286 -1,0.3217 -1,0.3148 -1,0.3079 -1,0.301 -1,0.2941 -1,0.2873 -1,0.2805 -1,0.2738 -1,0.267 -1,0.2603 -1,0.2536 -1,0.2469 -1,0.2402 -1,0.2336 -1,0.227 -1,0.2204 -1,0.2138 -1,0.2072 -1,0.2007 -1,0.1942 -1,0.1876 -1,0.1811 -1,0.1746 -1,0.1682 -1,0.1617 -1,0.1553 -1,0.1488 -1,0.1424 -1,0.136 -1,0.1296 -1,0.1232 -1,0.1168 -1,0.1105 -1,0.1041 -1,0.0978 -1,0.0914 -1,0.0851 -1,0.0788 -1,0.0724 -1,0.0661 -1,0.0598 -1,0.0535 -1,0.0472 -1,0.0409 -1,0.0346 -1,0.0283 -1,0.022 -1,0.0157 -1,0.0094 -1,0.0031 -1,-0.0031 -1,-0.0094 -1,-0.0157 -1,-0.022 -1,-0.0283 -1,-0.0346 -1,-0.0409 -1,-0.0472 -1,-0.0535 -1,-0.0598 -1,-0.0661 -1,-0.0724 -1,-0.0788 -1,-0.0851 -1,-0.0914 -1,-0.0978 -1,-0.1041 -1,-0.1105 -1,-0.1168 -1,-0.1232 -1,-0.1296 -1,-0.136 -1,-0.1424 -1,-0.1488 -1,-0.1553 -1,-0.1617 -1,-0.1682 -1,-0.1746 -1,-0.1811 -1,-0.1876 -1,-0.1942 -1,-0.2007 -1,-0.2072 -1,-0.2138 -1,-0.2204 -1,-0.227 -1,-0.2336 -1,-0.2402 -1,-0.2469 -1,-0.2536 -1,-0.2603 -1,-0.267 -1,-0.2738 -1,-0.2805 -1,-0.2873 -1,-0.2941 -1,-0.301 -1,-0.3079 -1,-0.3148 -1,-0.3217 -1,-0.3286 -1,-0.3356 -1,-0.3426 -1,-0.3497 -1,-0.3567 -1,-0.3638 -1,-0.371 -1,-0.3781 -1,-0.3853 -1,-0.3926 -1,-0.3999 -1,-0.4072 -0.9999,-0.4145 -0.9999,-0.4219 -0.9999,-0.4293 -0.9999,-0.4367 -0.9998,-0.4442 -0.9997,-0.4517 -0.9996,-0.4593 -0.9995,-0.4669 -0.9994,-0.4745 -0.9993,-0.4821 -0.9991,-0.4898 -0.9988,-0.4975 -0.9986,-0.5052 -0.9982,-0.513 -0.9978,-0.5207 -0.9974,-0.5285 -0.9969,-0.5363 -0.9963,-0.5441 -0.9956,-0.5519 -0.9949,-0.5597 -0.994,-0.5675 -0.9931,-0.5752 -0.992,-0.583 -0.9909,-0.5907 -0.9896,-0.5984 -0.9882,-0.6061 -0.9867,-0.6138 -0.9851,-0.6214 -0.9834,-0.6289 -0.9815,-0.6365 -0.9795,-0.644 -0.9774,-0.6514 -0.9751,-0.6588 -0.9727,-0.6661 -0.9702,-0.6734 -0.9676,-0.6806 -0.9648,-0.6878 -0.9619,-0.6949 -0.9589,-0.702 -0.9558,-0.7089 -0.9526,-0.7159 -0.9492,-0.7227 -0.9457,-0.7295 -0.9421,-0.7362 -0.9384,-0.7429 -0.9346,-0.7495 -0.9307,-0.756 -0.9267,-0.7625 -0.9226,-0.7689 -0.9184,-0.7752 -0.9141,-0.7815 -0.9097,-0.7877 -0.9052,-0.7938 -0.9007,-0.7999 -0.896,-0.8059 -0.8912,-0.8118 -0.8864,-0.8177 -0.8815,-0.8234 -0.8765,-0.8292 -0.8714,-0.8348 -0.8663,-0.8404 -0.8611,-0.8459 -0.8558,-0.8513 -0.8504,-0.8567 -0.845,-0.862 -0.8394,-0.8672 -0.8338,-0.8723 -0.8282,-0.8774 -0.8225,-0.8823 -0.8167,-0.8872 -0.8108,-0.8921 -0.8049,-0.8968 -0.7988,-0.9014 -0.7928,-0.906 -0.7866,-0.9105 -0.7804,-0.9148 -0.7741,-0.9191 -0.7678,-0.9233 -0.7614,-0.9274 -0.7549,-0.9314 -0.7484,-0.9353 -0.7418,-0.9391 -0.7351,-0.9428 -0.7284,-0.9463 -0.7216,-0.9498 -0.7147,-0.9531 -0.7078,-0.9564 -0.7008,-0.9595 -0.6937,-0.9624 -0.6866,-0.9653 -0.6794,-0.9681 -0.6722,-0.9707 -0.6649,-0.9732 -0.6575,-0.9755 -0.6501,-0.9777 -0.6427,-0.9799 -0.6352,-0.9818 -0.6277,-0.9837 -0.6201,-0.9854 -0.6125,-0.987 -0.6048,-0.9885 -0.5971,-0.9898 -0.5894,-0.9911 -0.5817,-0.9922 -0.5739,-0.9933 -0.5661,-0.9942 -0.5583,-0.995 -0.5506,-0.9958 -0.5428,-0.9964 -0.535,-0.997 -0.5272,-0.9975 -0.5194,-0.9979 -0.5117,-0.9983 -0.5039,-0.9986 -0.4962,-0.9989 -0.4885,-0.9991 -0.4808,-0.9993 -0.4732,-0.9994 -0.4656,-0.9996 -0.458,-0.9997 -0.4505,-0.9997 -0.4429,-0.9998 -0.4355,-0.9999 -0.428,-0.9999 -0.4206,-0.9999 -0.4133,-0.9999 -0.4059,-1 -0.3986,-1 -0.3913,-1 -0.3841,-1 -0.3769,-1 -0.3698,-1 -0.3626,-1 -0.3555,-1 -0.3485,-1 -0.3414,-1 -0.3344,-1 -0.3274,-1 -0.3205,-1 -0.3136,-1 -0.3067,-1 -0.2998,-1 -0.293,-1 -0.2862,-1 -0.2794,-1 -0.2726,-1 -0.2659,-1 -0.2591,-1 -0.2525,-1 -0.2458,-1 -0.2391,-1 -0.2325,-1 -0.2259,-1 -0.2193,-1 -0.2127,-1 -0.2061,-1 -0.1996,-1 -0.193,-1 -0.1865,-1 -0.18,-1 -0.1735,-1 -0.1671,-1 -0.1606,-1 -0.1542,-1 -0.1477,-1 -0.1413,-1 -0.1349,-1 -0.1285,-1 -0.1221,-1 -0.1158,-1 -0.1094,-1 -0.103,-1 -0.0967,-1 -0.0903,-1 -0.084,-1 -0.0777,-1 -0.0714,-1 -0.065,-1 -0.0587,-1 -0.0524,-1 -0.0461,-1 -0.0398,-1 -0.0335,-1 -0.0272,-1 -0.0209,-1 -0.0146,-1 -0.0084,-1 -0.0021,-1 0.0042,-1 0.0105,-1 0.0168,-1 0.0231,-1 0.0294,-1 0.0357,-1 0.042,-1 0.0483,-1 0.0546,-1 0.0609,-1 0.0672,-1 0.0735,-1 0.0798,-1 0.0862,-1 0.0925,-1 0.0988,-1 0.1052,-1 0.1116,-1 0.1179,-1 0.1243,-1 0.1307,-1 0.1371,-1 0.1435,-1 0.1499,-1 0.1564,-1 0.1628,-1 0.1693,-1 0.1758,-1 0.1822,-1 0.1887,-1 0.1953,-1 0.2018,-1 0.2084,-1 0.2149,-1 0.2215,-1 0.2281,-1 0.2347,-1 0.2414,-1 0.248,-1 0.2547,-1 0.2614,-1 0.2682,-1 0.2749,-1 0.2817,-1 0.2885,-1 0.2953,-1 0.3022,-1 0.309,-1 0.3159,-1 0.3229,-1 0.3298,-1 0.3368,-1 0.3438,-1 0.3509,-1 0.3579,-1 0.3651,-1 0.3722,-1 0.3794,-1 0.3866,-1 0.3938,-1 0.4011,-1 0.4084,-1 0.4158,-0.9999 0.4231,-0.9999 0.4306,-0.9999 0.438,-0.9998 0.4455,-0.9998 0.453,-0.9997 0.4606,-0.9996 0.4682,-0.9995 0.4758,-0.9994 0.4835,-0.9992 0.4911,-0.999 0.4988,-0.9988 0.5066,-0.9985 0.5143,-0.9982 0.5221,-0.9978 0.5298,-0.9973 0.5376,-0.9968 0.5454,-0.9962 0.5532,-0.9955 0.561,-0.9947 0.5688,-0.9939 0.5765,-0.9929 0.5843,-0.9919 0.592,-0.9907 0.5997,-0.9894 0.6074,-0.988 0.6151,-0.9865 0.6227,-0.9848 0.6302,-0.9831 0.6378,-0.9812 0.6452,-0.9792 0.6527,-0.977 0.6601,-0.9747 0.6674,-0.9723 0.6747,-0.9698 0.6819,-0.9671 0.689,-0.9643 0.6961,-0.9614 0.7032,-0.9584 0.7101,-0.9553 0.717,-0.952 0.7239,-0.9486 0.7307,-0.9451 0.7374,-0.9415 0.744,-0.9378 0.7506,-0.934 0.7571,-0.9301 0.7636,-0.926 0.77,-0.9219 0.7763,-0.9177 0.7825,-0.9134 0.7887,-0.909 0.7948,-0.9045 0.8009,-0.8999 0.8069,-0.8952 0.8128,-0.8904 0.8186,-0.8856 0.8244,-0.8807 0.8301,-0.8757 0.8358,-0.8706 0.8413,-0.8654 0.8468,-0.8602 0.8522,-0.8549 0.8576,-0.8495 0.8629,-0.844 0.8681,-0.8385 0.8732,-0.8329 0.8782,-0.8272 0.8832,-0.8215 0.8881,-0.8157 0.8929,-0.8098 0.8976,-0.8038 0.9022,-0.7978 0.9068,-0.7917 0.9112,-0.7856 0.9156,-0.7794 0.9199,-0.7731 0.924,-0.7667 0.9281,-0.7603 0.9321,-0.7538 0.9359,-0.7473 0.9397,-0.7406 0.9434,-0.734 0.9469,-0.7272 0.9504,-0.7204 0.9537,-0.7135 0.9569,-0.7066 0.96,-0.6996 0.9629,-0.6925 0.9658,-0.6854 0.9685,-0.6782 0.9711,-0.6709 0.9736,-0.6636 0.9759,-0.6563 0.9781,-0.6489 0.9802,-0.6414 0.9822,-0.6339 0.984,-0.6264 0.9857,-0.6188 0.9873,-0.6112 0.9887,-0.6035 0.9901,-0.5958 0.9913,-0.5881 0.9924,-0.5803 0.9934,-0.5726 0.9943,-0.5648 0.9951,-0.557 0.9959,-0.5492 0.9965,-0.5414 0.9971,-0.5336 0.9976,-0.5259 0.998,-0.5181 0.9983,-0.5103 0.9987,-0.5026 0.9989,-0.4949 0.9991,-0.4872 0.9993,-0.4795 0.9995,-0.4719 0.9996,-0.4643 0.9997,-0.4567 0.9998,-0.4492 0.9998,-0.4417 0.9999,-0.4342 0.9999,-0.4268 0.9999,-0.4194 1,-0.412 1,-0.4047 1,-0.3974 1,-0.3901 1,-0.3829 1,-0.3757 1,-0.3685 1,-0.3614 1,-0.3543 1,-0.3473 1,-0.3402 1,-0.3332 1,-0.3263 1,-0.3193 1,-0.3124 1,-0.3055 1,-0.2987 1,-0.2918 1,-0.285 1,-0.2782 1,-0.2715 1,-0.2647 1,-0.258 1,-0.2513 1,-0.2446 1,-0.238 1,-0.2313 1,-0.2247 1,-0.2181 1,-0.2116 1,-0.205 1,-0.1985 1,-0.1919 1,-0.1854 1,-0.1789 1,-0.1724 1,-0.166 1,-0.1595 1,-0.1531 1,-0.1466 1,-0.1402 1,-0.1338 1,-0.1274 1,-0.121 1,-0.1147 1,-0.1083 1,-0.102 1,-0.0956 1,-0.0893 1,-0.0829 1,-0.0766 1,-0.0703 1,-0.064 1,-0.0577 1,-0.0513 1,-0.045 1,-0.0387 1,-0.0324 1,-0.0262 1,-0.0199 1,-0.0136 1,-0.0073 1,-0.001 1,0.001 1,0.0073 1,0.0136 1,0.0199 1,0.0262 1,0.0324 1,0.0387 1,0.045 1,0.0513 1,0.0577 1,0.064 "
       fill="none"
       stroke="blue"
       stroke-width="0.02"
       id="polygon2"
       style="fill:#282e33;fill-opacity:1;stroke:none"
       transform="matrix(105.24,0,0,105.24,105.03915,148.67033)" /><ellipse
       style="opacity:1;fill:#3081c5;fill-opacity:1;stroke:none;stroke-width:1;stroke-linecap:square"
       id="path42"
       cx="87.157234"
       cy="147.15433"
       rx="4.0548539"
       ry="4.2170477" /><path
       style="display:inline;fill:#1db1c7"
       d="m 82.779664,223.48336 c 1.091406,-0.19806 3.413124,-0.61712 5.159374,-0.93124 11.124346,-2.00113 24.135402,-7.54782 34.395822,-14.66314 13.30997,-9.23009 22.70821,-21.25096 27.19873,-34.78866 2.31894,-6.99098 3.6828,-14.44944 4.10208,-22.43282 l 0.18461,-3.51511 7.54062,-1.8e-4 7.54063,-1.7e-4 0.17943,1.6632 c 0.0987,0.91476 0.42867,3.86586 0.7333,6.558 0.81816,7.23043 1.04966,9.46228 1.482,14.2875 0.46829,5.2266 0.94224,17.51633 0.77848,20.18671 -0.0643,1.04829 -0.18154,3.88885 -0.26056,6.31233 -0.16985,5.20915 -0.66454,9.71571 -1.58429,14.43276 -1.38295,7.09266 -3.36812,11.03491 -6.3374,12.58515 l -1.07638,0.56197 -41.01041,0.0519 c -35.278001,0.0446 -40.733037,0.002 -39.026036,-0.3082 z"
       id="path15"
       sodipodi:nodetypes="ccssscccsssssssccc" /><path
       id="path15-9"
       style="display:inline;fill:#1594bb;fill-opacity:1"
       d="m 160.95968,179.22265 -0.66921,2.38125 c -1.57843,5.61906 -5.00087,13.11027 -8.46511,18.52859 -5.02571,7.86057 -12.23385,15.5546 -19.56883,20.88864 -0.37464,0.27244 -1.42816,1.41441 -2.6169,2.76056 l 19.12287,-0.0243 2.20916,-4.64881 c 3.94655,-7.69345 6.76358,-16.25373 8.38037,-25.46615 0.47082,-2.6828 1.08845,-8.04121 1.47846,-12.83229 z" /><path
       id="path16"
       style="display:inline;fill:#d7d7d7;fill-opacity:1"
       d="m 127.12833,72.030651 v 5.17e-4 c -3.03132,-0.002 -4.2136,0.362449 -5.302,1.634009 l -0.86507,1.009757 h -10.3203 c -10.29649,0 -10.32261,0.0015 -11.213266,0.602031 -1.50415,1.01365 -2.095996,2.150718 -2.095996,4.028178 0,1.87747 0.591846,3.015054 2.095996,4.028694 0.892076,0.60117 0.900766,0.602031 11.614796,0.602031 9.60546,0 10.77205,0.04539 11.20552,0.437699 0.43436,0.39305 0.48369,0.921285 0.48369,5.159375 v 4.721676 h 4.49791 4.49792 v -4.675684 c 0,-3.97933 0.0655,-4.747048 0.43822,-5.158858 0.41029,-0.45335 1.10348,-0.484208 11.00604,-0.484208 11.90168,0 11.82906,0.01059 13.11962,-1.941484 0.5699,-0.86203 0.7027,-1.371221 0.6997,-2.671671 -0.005,-1.99707 -0.76525,-3.363128 -2.30994,-4.151168 -1.03014,-0.52585 -1.46129,-0.545882 -11.41688,-0.523482 l -10.34613,0.02325 -0.71314,-1.040246 c -0.88269,-1.2868 -1.87126,-1.59842 -5.07669,-1.60042 z m -10.79934,24.340117 -0.89969,0.899687 c -0.88117,0.88129 -0.8989,0.945015 -0.8909,3.109375 0.009,2.39196 0.20468,2.86119 1.47174,3.5295 0.66142,0.34885 2.31331,0.39529 11.83701,0.33589 l 11.06806,-0.0692 0.77204,-0.86403 c 0.71784,-0.8036 0.77153,-1.01365 0.77153,-3.00292 0,-2.079752 -0.0245,-2.163885 -0.89917,-3.038575 l -0.89969,-0.899687 H 127.4942 Z m -34.75447,9.904822 c -26.482352,2e-5 -47.950535,21.46821 -47.950561,47.95056 2.6e-5,26.48235 21.468209,47.95054 47.950561,47.95056 26.48235,-2e-5 47.95053,-21.46821 47.95056,-47.95056 1e-5,-9.09138 -2.58453,-17.99544 -7.45226,-25.67388 4.02743,-0.9075 8.72733,-0.39486 12.89586,-0.37517 12.11257,0.0736 12.53861,0.0942 13.69218,0.63872 2.3628,1.11533 4.22575,3.80895 4.23075,6.11849 l 0.003,1.12396 h 8.36177 8.36125 l -0.11628,-5.35781 c -0.12292,-5.64032 -0.41701,-7.2486 -1.84795,-10.12032 -1.5803,-3.17147 -4.85811,-6.41076 -8.18761,-8.09149 -3.12583,-1.57792 -4.80098,-1.87348 -11.73055,-2.06758 -5.77196,-0.16168 -6.44634,-0.22818 -7.40833,-0.74 -1.06413,-0.56616 -2.49234,-1.92123 -2.959,-2.80603 -0.23478,-0.44515 -0.87316,-0.47481 -9.89087,-0.46251 -8.67304,0.0119 -9.66624,0.0576 -9.9043,0.45114 -0.65084,1.0758 -1.88911,2.28495 -2.8851,2.81791 -1.00549,0.53804 -1.5076,0.58616 -6.98303,0.66456 l -5.8999,0.0842 c -0.19343,0.003 -13.427708,-4.15472 -20.23029,-4.15478 z m 0.273369,10.28671 c 20.697731,9e-5 37.476451,16.77905 37.476261,37.47678 -9e-5,20.69753 -16.77873,37.47618 -37.476261,37.47627 -20.697534,-9e-5 -37.476178,-16.77873 -37.476266,-37.47627 -1.94e-4,-20.69774 16.778533,-37.47669 37.476266,-37.47678 z m 89.309281,21.42815 c -0.124,-0.005 -0.24871,-0.005 -0.37362,5.2e-4 -0.14276,0.006 -0.28577,0.0203 -0.42685,0.0413 -0.36381,0.0542 -5.03701,0.10882 -10.3849,0.12092 -11.64002,0.0264 -10.78177,-0.24789 -10.78177,3.44217 0,2.23662 0.037,2.39116 0.69712,2.91041 0.67979,0.53477 0.97025,0.54829 11.65407,0.54829 h 10.95643 l 0.64958,-0.64905 c 0.58593,-0.58591 0.64905,-0.86601 0.64905,-2.86081 0,-1.84392 -0.0877,-2.30539 -0.52813,-2.77813 -0.42222,-0.4532 -1.24299,-0.74102 -2.11098,-0.77566 z"
       sodipodi:nodetypes="ccccscssscscccssssccsccccccscccssccccccsccscccccsssssccsccccccccccccscsccssc" /><path
       id="path14"
       style="display:inline;fill:#1d4e77"
       d="m 82.017256,126.81309 c -9.864448,-0.023 -19.527826,5.33539 -24.412463,14.70815 -2.178271,4.17972 -2.953825,7.39953 -2.953825,12.26437 0,4.71106 0.765814,7.96023 2.869592,12.17083 3.659176,7.32364 10.703459,12.7008 18.908923,14.43375 H 76.43 c 1.17997,0.24925 3.048584,0.33408 5.953125,0.27078 6.25092,-0.13624 9.478167,-1.14586 14.602209,-4.56871 2.2387,-1.49545 5.702376,-4.87561 7.132896,-6.96082 1.84141,-2.68416 3.45646,-6.56861 4.21938,-10.14977 0.5368,-2.52123 0.53753,-8.18214 0.001,-10.67221 -1.711,-7.94134 -6.12861,-13.97669 -13.175416,-18.00097 -4.136896,-2.36249 -8.662128,-3.48493 -13.145968,-3.4954 z m -1.708423,12.20184 c 0.666818,-0.029 1.39537,-0.0203 2.226221,0.0181 4.278345,0.19779 6.846327,1.2629 9.59528,3.9796 3.124267,3.08761 4.4099,6.26264 4.4049,10.88306 -0.002,1.73997 -0.15254,3.42614 -0.371038,4.146 -1.384803,4.56233 -4.829378,8.24236 -9.283671,9.91877 -1.445439,0.544 -2.433005,0.7157 -4.497917,0.7829 -3.007522,0.0979 -3.371168,0.0515 -5.539196,-0.71107 -4.784161,-1.68275 -8.106572,-5.15181 -9.717237,-10.14563 -0.451663,-1.40036 -0.435617,-6.8136 0.02429,-8.20208 1.375233,-4.15188 4.143619,-7.45491 7.69152,-9.17722 2.017499,-0.97938 3.466396,-1.40553 5.46685,-1.49242 z" /><path
       style="opacity:0.407749;fill:#c4e1f9;fill-opacity:1;stroke:none;stroke-width:1;stroke-linecap:square"
       id="path45"
       sodipodi:type="arc"
       sodipodi:cx="71.869202"
       sodipodi:cy="147.49948"
       sodipodi:rx="8.6973209"
       sodipodi:ry="0.13589564"
       sodipodi:start="0"
       sodipodi:end="0.092133255"
       sodipodi:arc-type="slice"
       d="m 80.566523,147.49948 a 8.6973209,0.13589564 0 0 1 -0.03689,0.0125 l -8.660433,-0.0125 z" /></g></svg>
