<?xml version="1.0" encoding="UTF-8" standalone="no"?>
<!-- Created with Inkscape (http://www.inkscape.org/) -->

<svg
   width="140.02875mm"
   height="151.77568mm"
   viewBox="0 0 140.02875 151.77568"
   version="1.1"
   id="svg1"
   inkscape:version="1.4.2 (ebf0e940, 2025-05-08)"
   sodipodi:docname="menuicon.svg"
   xmlns:inkscape="http://www.inkscape.org/namespaces/inkscape"
   xmlns:sodipodi="http://sodipodi.sourceforge.net/DTD/sodipodi-0.dtd"
   xmlns="http://www.w3.org/2000/svg"
   xmlns:svg="http://www.w3.org/2000/svg">
  <sodipodi:namedview
     id="namedview1"
     pagecolor="#ffffff"
     bordercolor="#000000"
     borderopacity="0.25"
     inkscape:showpageshadow="2"
     inkscape:pageopacity="0.0"
     inkscape:pagecheckerboard="0"
     inkscape:deskcolor="#d1d1d1"
     inkscape:document-units="mm"
     inkscape:zoom="0.1630812"
     inkscape:cx="300.46383"
     inkscape:cy="990.30424"
     inkscape:window-width="1024"
     inkscape:window-height="1258"
     inkscape:window-x="0"
     inkscape:window-y="44"
     inkscape:window-maximized="0"
     inkscape:current-layer="layer1" />
  <defs
     id="defs1" />
  <g
     inkscape:label="Layer 1"
     inkscape:groupmode="layer"
     id="layer1"
     transform="translate(-31.587133,-66.171147)">
    <path
       id="path42"
       style="display:inline;fill:#000000;fill-opacity:1;stroke:none;stroke-width:1;stroke-linecap:square"
       d="m 124.94793,66.171155 c -3.03132,-0.002 -4.2136,0.362965 -5.302,1.634525 l -0.86507,1.009758 h -10.3203 c -10.296487,0 -10.32261,0.0015 -11.213266,0.60203 -1.50415,1.01365 -2.095996,2.150718 -2.095996,4.028178 0,1.87747 0.591846,3.015055 2.095996,4.028695 0.892076,0.60117 0.900765,0.60203 11.614796,0.60203 9.60546,0 10.77205,0.04539 11.20552,0.4377 0.43436,0.39305 0.48369,0.921285 0.48369,5.159375 v 4.721675 h 4.49791 4.49792 v -4.675683 c 0,-3.97933 0.0655,-4.747049 0.43822,-5.158859 0.41029,-0.45335 1.10348,-0.484208 11.00604,-0.484208 11.90168,0 11.82906,0.01059 13.11962,-1.941483 0.5699,-0.86203 0.7027,-1.371222 0.6997,-2.671672 -0.005,-1.99707 -0.76525,-3.363128 -2.30994,-4.151168 -1.03014,-0.52585 -1.46129,-0.545882 -11.41688,-0.523482 l -10.34613,0.02325 -0.71314,-1.040246 c -0.88269,-1.2868 -1.87126,-1.598419 -5.07669,-1.600419 z m -10.79934,24.340116 -0.89969,0.899687 c -0.88117,0.88129 -0.8989,0.945021 -0.8909,3.109371 0.009,2.39196 0.20468,2.86119 1.47174,3.5295 0.66142,0.34885 2.31331,0.395297 11.83701,0.335897 l 11.06806,-0.06925 0.77204,-0.864029 c 0.71784,-0.8036 0.77153,-1.013648 0.77153,-3.002918 0,-2.07975 -0.0245,-2.163884 -0.89917,-3.038574 l -0.89969,-0.899687 H 125.3138 Z m -33.762282,9.550319 c -1.976831,-0.053 -3.945901,0.0141 -5.87251,0.20671 -23.625369,2.36214 -41.46691,20.78004 -42.834595,44.21797 -0.84343,14.45382 4.126222,27.67399 14.158309,37.66179 7.756621,7.72238 17.885856,12.49327 29.020451,13.66893 h 5.17e-4 c 3.121424,0.32948 9.170279,0.082 12.657625,-0.5178 17.573335,-3.02243 32.141475,-15.54404 37.650415,-32.36133 3.39234,-10.35589 3.2629,-21.53042 -0.3638,-31.36656 -0.80973,-2.19609 -3.03889,-6.75426 -3.97082,-8.1194 -0.29802,-0.43656 -0.54268,-0.88747 -0.54364,-1.00201 -9.6e-4,-0.11449 5.62416,-0.17409 12.50002,-0.13229 12.11257,0.0736 12.53861,0.0937 13.69218,0.6382 2.3628,1.11533 4.22575,3.80895 4.23075,6.11849 l 0.003,1.12448 h 8.36177 8.36125 l -0.11628,-5.35781 c -0.12292,-5.64032 -0.41701,-7.24859 -1.84795,-10.12031 -1.5803,-3.17147 -4.85811,-6.41077 -8.18761,-8.0915 -3.12583,-1.57792 -4.80098,-1.87347 -11.73055,-2.06757 -5.77196,-0.16168 -6.44634,-0.22871 -7.40833,-0.74053 -1.06413,-0.56616 -2.49234,-1.92071 -2.959,-2.80551 -0.23478,-0.44515 -0.87316,-0.4748 -9.89087,-0.4625 -8.67304,0.0119 -9.66624,0.0571 -9.9043,0.45061 -0.65084,1.0758 -1.88911,2.28548 -2.8851,2.81844 -1.00549,0.53804 -1.5076,0.58616 -6.98303,0.66456 l -5.8999,0.0842 -2.169893,-0.92346 c -5.136295,-2.18584 -11.137199,-3.42689 -17.067692,-3.58583 z m -0.977718,10.97349 c 3.849634,-0.007 5.553836,0.10231 7.276041,0.46561 7.536334,1.58978 13.733919,4.91145 19.072219,10.22315 3.2599,3.24365 5.03943,5.67323 6.982,9.53326 11.10359,22.06365 -2.42997,48.96916 -26.827815,53.33577 -2.132485,0.38164 -7.914381,0.66408 -9.677445,0.47284 -4.304875,-0.46696 -9.270128,-1.88688 -12.936678,-3.69952 -9.140881,-4.51901 -16.022105,-12.54452 -19.160071,-22.34541 -2.373929,-7.41455 -2.237991,-16.34735 0.358117,-23.53034 4.302371,-11.90393 14.391049,-20.80633 26.911019,-23.74687 2.656084,-0.62385 3.515724,-0.70049 8.002613,-0.70849 z m 0.428397,9.91826 c -9.864448,-0.023 -19.527826,5.33539 -24.412463,14.70815 -2.178271,4.17972 -2.953825,7.39952 -2.953825,12.26436 0,4.71106 0.765814,7.96024 2.869592,12.17084 3.659176,7.32364 10.70346,12.70079 18.908924,14.43374 h 5.16e-4 c 1.17997,0.24925 3.048584,0.33409 5.953125,0.27079 6.25092,-0.13624 9.478168,-1.14587 14.60221,-4.56872 2.2387,-1.49545 5.702374,-4.8756 7.132894,-6.96081 1.84141,-2.68416 3.45646,-6.56861 4.21938,-10.14977 0.5368,-2.52123 0.53757,-8.18215 10e-4,-10.67222 -1.711,-7.94134 -6.12862,-13.97669 -13.175425,-18.00097 -4.136896,-2.36249 -8.662128,-3.48492 -13.145968,-3.49539 z m 89.139783,11.17761 c -0.124,-0.005 -0.24871,-0.005 -0.37362,5.2e-4 -0.14276,0.006 -0.28577,0.0203 -0.42685,0.0413 -0.36381,0.0542 -5.03701,0.10882 -10.3849,0.12092 -11.64002,0.0264 -10.78177,-0.24789 -10.78177,3.44217 0,2.23662 0.037,2.39117 0.69712,2.91042 0.67979,0.53477 0.97025,0.54828 11.65407,0.54828 h 10.95643 l 0.64958,-0.64905 c 0.58593,-0.58591 0.64905,-0.86601 0.64905,-2.86081 0,-1.84392 -0.0877,-2.30538 -0.52813,-2.77812 -0.42222,-0.45321 -1.24299,-0.74102 -2.11098,-0.77567 z m -90.848206,1.02423 c 0.666818,-0.029 1.39537,-0.0198 2.226221,0.0186 4.278345,0.19779 6.846327,1.26291 9.59528,3.97961 3.124267,3.08761 4.409899,6.26263 4.404899,10.88305 -0.002,1.73997 -0.152539,3.42614 -0.371037,4.146 -1.384803,4.56233 -4.829378,8.24237 -9.283671,9.91878 -1.445439,0.544 -2.433004,0.71569 -4.497916,0.78289 -3.007522,0.0979 -3.371169,0.0515 -5.539197,-0.71106 -4.784161,-1.68275 -8.106571,-5.15182 -9.717236,-10.14564 -0.451663,-1.40036 -0.43562,-6.8136 0.02429,-8.20208 1.375233,-4.15188 4.14362,-7.45491 7.691521,-9.17722 2.017499,-0.97938 3.466395,-1.40552 5.466849,-1.49241 z m 6.848161,3.92276 a 4.0548539,4.2170477 0 0 0 -4.054533,4.21679 4.0548539,4.2170477 0 0 0 4.054533,4.21732 4.0548539,4.2170477 0 0 0 4.05505,-4.21732 4.0548539,4.2170477 0 0 0 -4.05505,-4.21679 z m 66.663115,4.21473 -0.18449,3.51555 c -0.41928,7.98338 -1.78313,15.44175 -4.10207,22.43273 -4.49052,13.5377 -13.88889,25.55849 -27.19886,34.78858 -10.26042,7.11532 -23.271484,12.66206 -34.39583,14.66319 -1.74625,0.31412 -4.067969,0.73315 -5.159375,0.93121 -1.707001,0.3102 3.748036,0.35259 39.026045,0.30799 l 7.83414,-0.01 c 1.18873,-1.34613 2.24226,-2.48812 2.6169,-2.76056 7.33498,-5.33404 14.54312,-13.02807 19.56883,-20.88864 3.46424,-5.41832 6.88669,-12.90953 8.46512,-18.52859 l 0.66921,-2.38125 -0.1292,1.5875 c -0.39001,4.79108 -1.00764,10.14949 -1.47846,12.83229 -1.61679,9.21242 -4.43382,17.7727 -8.38037,25.46615 l -2.20916,4.64881 14.0534,-0.0176 1.07642,-0.56224 c 2.96928,-1.55024 4.95465,-5.4921 6.3376,-12.58476 0.91975,-4.71705 1.41403,-9.22356 1.58388,-14.43271 0.079,-2.42348 0.19667,-5.2645 0.26097,-6.31279 0.16376,-2.67038 -0.31047,-14.95977 -0.77876,-20.18637 -0.43234,-4.82522 -0.66392,-7.05707 -1.48208,-14.2875 -0.30463,-2.69214 -0.63459,-5.64349 -0.73329,-6.55825 l -0.17932,-1.66295 h -7.54063 z" />
  </g>
</svg>
